# xmcd
#
# Track frame offsets: 
#        150
#        16945
#        37217
#        39902
#        56977
#        78445
#        107050
#        127125
#        132832
#        144902
#        160960
#        167525
#        191297
#        210352
#        215700
#        235480
#        250445
#        268967
#        279890
#
# Disc length: 3953 seconds
#
# Revision: 0
# Processed by: cddbd v1.4PL0 Copyright (c) Steve Scherf et al.
# Submitted via: ExactAudioCopy v0.90b4
#
DISCID=180f6f13
DTITLE=Kelly Bell Band - Phat Blues Music
DYEAR=1998
DGENRE=Blues
TTITLE0=Sweet Wind and Soul
TTITLE1=Homegrown
TTITLE2=Callin' Ma Bell
TTITLE3=F.B.I.
TTITLE4=Down In the Bottom
TTITLE5=Say One Thing
TTITLE6=One World
TTITLE7=Gibb's Groove
TTITLE8=Only One
TTITLE9=Dear Maggie
TTITLE10=Losing Myself
TTITLE11=Praise to the Woman
TTITLE12=Look My Way
TTITLE13=Barfly and the ...
TTITLE14=Bluesman
TTITLE15=Rollin' and Tumblin'
TTITLE16=Somebody's Fool
TTITLE17=Mean to Me
TTITLE18=Homegrown (Radio Edit)
EXTD=
EXTT0=
EXTT1=
EXTT2=
EXTT3=
EXTT4=
EXTT5=
EXTT6=
EXTT7=
EXTT8=
EXTT9=
EXTT10=
EXTT11=
EXTT12=
EXTT13=
EXTT14=
EXTT15=
EXTT16=
EXTT17=
EXTT18=
PLAYORDER=
